<svg id="Layer_1" data-name="Layer 1" xmlns="http://www.w3.org/2000/svg" xmlns:xlink="http://www.w3.org/1999/xlink" viewBox="0 0 82.7 26.1"><defs><style>.cls-1{fill:none;}.cls-2{fill:#d62d20;}.cls-3{fill:#ffa700;}.cls-4{fill:#0057e7;}.cls-5{fill:#008744;}.cls-6{fill:#fff;}.cls-7{fill:#66bb6a;}.cls-8{fill:#388e3c;}.cls-9{clip-path:url(#clip-path);}.cls-10{fill:url(#Gradiente_sem_nome_2);}.cls-11{fill:#fafafa;}.cls-12{fill:#e0e0e0;}</style><clipPath id="clip-path"><path id="SVGID" class="cls-1" d="M9.3,2.5C5.2,2.5,1.6,4.2.2,4.7V7.1c0,6.7,0,11.3,3.9,15.1a49.06,49.06,0,0,0,5.1,3.9,49.06,49.06,0,0,0,5.1-3.9c3.9-3.9,3.9-7.9,3.9-14.2V4.7C16.4,4.2,13.2,2.5,9.3,2.5Z"/></clipPath><linearGradient id="Gradiente_sem_nome_2" x1="189.56" y1="174.3" x2="189.56" y2="174.25" gradientTransform="matrix(328.77, 0, 0, -27.04, -62312.98, 4716.51)" gradientUnits="userSpaceOnUse"><stop offset="0" stop-color="#263238" stop-opacity="0.35"/><stop offset="0.42" stop-color="#263238" stop-opacity="0.15"/><stop offset="0.89" stop-color="#263238" stop-opacity="0.02"/><stop offset="1" stop-color="#263238" stop-opacity="0"/></linearGradient></defs><title>Selos</title><path id="Caminho_12" data-name="Caminho 12" class="cls-2" d="M36.9,8a2.7,2.7,0,1,1-2.7-2.7h0A2.69,2.69,0,0,1,36.9,8ZM35.7,8a1.5,1.5,0,1,0-3,.2,1.52,1.52,0,0,0,1.5,1.4A1.5,1.5,0,0,0,35.7,8Z"/><path id="Caminho_13" data-name="Caminho 13" class="cls-3" d="M42.7,8A2.7,2.7,0,1,1,40,5.3h0A2.69,2.69,0,0,1,42.7,8ZM41.5,8a1.5,1.5,0,1,0-3,.2A1.52,1.52,0,0,0,40,9.6,1.56,1.56,0,0,0,41.5,8Z"/><path id="Caminho_14" data-name="Caminho 14" class="cls-4" d="M48.2,5.5v4.8c0,2-1.2,2.8-2.5,2.8a2.6,2.6,0,0,1-2.4-1.6l1-.4a1.52,1.52,0,0,0,1.3,1c.9,0,1.4-.5,1.4-1.6v-.4h0a2,2,0,0,1-1.4.6,2.7,2.7,0,0,1,0-5.4,1.82,1.82,0,0,1,1.4.6h0V5.5ZM47.2,8a1.42,1.42,0,0,0-1.4-1.6h-.1a1.59,1.59,0,0,0-1.4,1.8,1.5,1.5,0,0,0,1.4,1.4A1.44,1.44,0,0,0,47.2,8Z"/><path id="Caminho_15" data-name="Caminho 15" class="cls-5" d="M50.1,2.7v7.8H49V2.7Z"/><path id="Caminho_16" data-name="Caminho 16" class="cls-2" d="M54.5,8.9l.9.6a2.67,2.67,0,0,1-4.9-1.4V8a2.56,2.56,0,0,1,2.4-2.7H53A2.46,2.46,0,0,1,55.3,7l.1.3L51.8,8.8a1.34,1.34,0,0,0,1.3.8A1.75,1.75,0,0,0,54.5,8.9Zm-2.8-1,2.4-1a1.1,1.1,0,0,0-1-.6,1.62,1.62,0,0,0-1.4,1.6Z"/><path id="Caminho_17" data-name="Caminho 17" class="cls-4" d="M27.2,7.3V6.2H31c0,.2.1.5.1.7a3.67,3.67,0,0,1-3.5,3.8h-.3a4.21,4.21,0,0,1-4.2-4.1,4.21,4.21,0,0,1,4.1-4.2h0a4.36,4.36,0,0,1,2.9,1.1l-.8.8a3,3,0,0,0-2.1-.8,3,3,0,0,0-3,3,3,3,0,0,0,3,3,3.23,3.23,0,0,0,2.1-.8,2,2,0,0,0,.6-1.4Z"/><path id="Caminho_18" data-name="Caminho 18" class="cls-6" d="M25.9,20.7a3.07,3.07,0,0,1-2.1-.6,2,2,0,0,1-.7-1.6H24a1.36,1.36,0,0,0,.6,1.1A3.26,3.26,0,0,0,26,20a2.66,2.66,0,0,0,1.2-.3,1,1,0,0,0,.5-.8.89.89,0,0,0-.5-.8,9.83,9.83,0,0,0-1.6-.5,3.63,3.63,0,0,1-1.7-.7,1.66,1.66,0,0,1-.5-1.2,1.75,1.75,0,0,1,.7-1.4,2.16,2.16,0,0,1,1.7-.5,3.45,3.45,0,0,1,1.8.5,1.8,1.8,0,0,1,.7,1.5h-.9c-.1-.8-.6-1.2-1.7-1.2a2.66,2.66,0,0,0-1.2.3.75.75,0,0,0-.4.7.6.6,0,0,0,.3.6,5.64,5.64,0,0,0,1.2.4A5.73,5.73,0,0,1,27,17a1.8,1.8,0,0,1,.9.6,1.5,1.5,0,0,1,.4,1.1,1.8,1.8,0,0,1-.7,1.5A2.86,2.86,0,0,1,25.9,20.7Zm6.7-1.4V18.2H32c-1.3,0-1.9.4-1.9,1a.86.86,0,0,0,.3.6,1.7,1.7,0,0,0,1.6,0A1.47,1.47,0,0,0,32.6,19.3Zm0,.8a2.72,2.72,0,0,1-1.7.6,1.75,1.75,0,0,1-1.2-.4,1.23,1.23,0,0,1-.5-1c0-1.1,1-1.7,2.9-1.7h.4a2.2,2.2,0,0,0-.1-.8c0-.2-.2-.3-.3-.4a1.88,1.88,0,0,0-.8-.2c-.8,0-1.2.3-1.2.8h-.9q.15-1.5,2.1-1.5a2.82,2.82,0,0,1,1.5.4,1.65,1.65,0,0,1,.5,1.5v3.2h-.9Zm3.2-3.8v4.2h-.9V16.3h-.7v-.7h.7v-.4c0-1,.4-1.5,1.4-1.5a1.27,1.27,0,0,1,.6.1v.8h-.5a.76.76,0,0,0-.5.2.66.66,0,0,0-.1.6v.4h.9v.7l-.9-.2Zm3.7,4.4a2.26,2.26,0,0,1-2.3-2.6,3.08,3.08,0,0,1,.6-1.9,2,2,0,0,1,1.6-.7,2.34,2.34,0,0,1,1.7.7,2.56,2.56,0,0,1,.6,1.9v.2H38a2.11,2.11,0,0,0,.5,1.3,1.28,1.28,0,0,0,1,.4,1.88,1.88,0,0,0,.8-.2.84.84,0,0,0,.4-.7h.9a1.52,1.52,0,0,1-.7,1.2,3.26,3.26,0,0,1-1.4.4Zm1.2-3a1.23,1.23,0,0,0-.5-1,1.27,1.27,0,0,0-1.8,0,2.35,2.35,0,0,0-.5,1Zm9.6,1a2,2,0,0,1-.6,1.5,3,3,0,0,1-1.9.5H45.3V13.9h2.4a2.62,2.62,0,0,1,1.7.5,1.61,1.61,0,0,1,.6,1.3,1.75,1.75,0,0,1-1,1.5c.7-.1,1.3.6,1.3,1.5Zm-4.2-2h1.5a3.59,3.59,0,0,0,1.1-.2,1.23,1.23,0,0,0,.4-.8,1.14,1.14,0,0,0-.3-.8,2.66,2.66,0,0,0-1.2-.3H46.2Zm0,3.1h1.6c1.1,0,1.6-.4,1.6-1.2a1.09,1.09,0,0,0-.4-.9,3.08,3.08,0,0,0-1.3-.3H46.1v2.4ZM54,16.5c-.2,0-.4-.1-.5,0a1.23,1.23,0,0,0-1.1.7v3.5h-.9V15.8h.9v.7a1.44,1.44,0,0,1,1.3-.8h.4l-.1.8Zm2.6-.9a2.34,2.34,0,0,1,1.7.7,2.56,2.56,0,0,1,.6,1.9,3.08,3.08,0,0,1-.6,1.9,2.06,2.06,0,0,1-1.7.7,2.34,2.34,0,0,1-1.7-.7,2.56,2.56,0,0,1-.6-1.9,3.08,3.08,0,0,1,.6-1.9A2.06,2.06,0,0,1,56.6,15.6Zm0,4.4a1.23,1.23,0,0,0,1-.5,2.8,2.8,0,0,0,0-2.8,1.25,1.25,0,0,0-2,0,2.3,2.3,0,0,0-.4,1.4,2.3,2.3,0,0,0,.4,1.4,1.23,1.23,0,0,0,1,.5Zm9.3-4.3-1.4,4.9h-.8L62.6,17l-1.1,3.6h-.8l-1.5-4.9h1l.9,3.7,1.1-3.7H63l1.1,3.7.9-3.7Zm2.5,5c-1.3,0-2-.5-2.1-1.6h.9q0,.9,1.2.9a1.88,1.88,0,0,0,.8-.2.71.71,0,0,0,.3-.6.55.55,0,0,0-.3-.5,4.87,4.87,0,0,0-1.1-.4,6.94,6.94,0,0,1-1.3-.5,1.09,1.09,0,0,1-.4-.9,1.23,1.23,0,0,1,.5-1,2.2,2.2,0,0,1,1.3-.4c1.3,0,1.9.5,2,1.4h-.9c0-.5-.4-.7-1-.7a.84.84,0,0,0-.7.2.55.55,0,0,0-.3.5.52.52,0,0,0,.2.4,2.28,2.28,0,0,0,1.1.3,5,5,0,0,1,1.3.5,1,1,0,0,1,.4,1,1.61,1.61,0,0,1-.5,1.1,1.62,1.62,0,0,1-1.4.5Zm3.8-.1h-.9V15.7h.9Zm0-5.8h-.9v-.9h.9Zm2.2,1.5a2.13,2.13,0,0,1,1.5-.7c1.1,0,1.6.6,1.6,1.8v3.2h-.9V17.4a1.49,1.49,0,0,0-.2-.9.91.91,0,0,0-.7-.3,1.83,1.83,0,0,0-1.3.8v3.5h-.9V15.6h.9Zm8.3,3.9q0,2.4-2.1,2.4a2.82,2.82,0,0,1-1.5-.4,1.61,1.61,0,0,1-.5-1.1h.9c0,.5.4.8,1.1.8a1.4,1.4,0,0,0,.9-.3,1.52,1.52,0,0,0,.3-1.3V20a1.75,1.75,0,0,1-1.4.7,1.8,1.8,0,0,1-1.5-.7,2.38,2.38,0,0,1-.5-1.8,3.08,3.08,0,0,1,.6-1.9,2.13,2.13,0,0,1,1.5-.7,1.9,1.9,0,0,1,1.3.5v-.4h.9Zm-.9-1V16.9a1.71,1.71,0,0,0-1.3-.7,1.05,1.05,0,0,0-.9.5,3.42,3.42,0,0,0,0,2.8,1.05,1.05,0,0,0,.9.5,2.22,2.22,0,0,0,1.3-.8Z"/><path id="Caminho_19" data-name="Caminho 19" class="cls-7" d="M0,3.4V5.8c0,2.2,0,4.1.1,6,.3,3.6,1.1,6.5,3.7,9.1a49.06,49.06,0,0,0,5.1,3.9V3.3C5.2,3.4,1.4,2.9,0,3.4Z"/><path id="Caminho_20" data-name="Caminho 20" class="cls-8" d="M18,3.4H9V24.9A49.06,49.06,0,0,0,14.1,21C18,17.1,18,13,18,6.8Z"/><g class="cls-9"><g id="Grupo_4" data-name="Grupo 4"><rect id="Retângulo_1" data-name="Retângulo 1" class="cls-10" x="-0.7" y="3.4" width="19.5" height="1.6"/></g></g><path class="cls-1" d="M13,15.7h0a4.18,4.18,0,0,1-.4,1,4.67,4.67,0,0,1-.5,1c-.1.2-.3.4-.4.6l-.1.2a5,5,0,0,1-.7.8c-.3.3-.7.8-1,1.1l-.9.9-.2-.2L7.2,19.5l-.7-.8-.2-.3a2.18,2.18,0,0,0-.4-.5,4.61,4.61,0,0,1-.5-1,4.18,4.18,0,0,1-.4-1H5C4.2,14.3,13.8,13.8,13,15.7Z"/><g id="Grupo_5" data-name="Grupo 5"><path class="cls-11" d="M10.9,19.4c-.3.4-.7.7-1,1.1l-.9.9c-.1-.1-.2-.1-.2-.2L7.2,19.6a2.88,2.88,0,0,1,3.7-.2Z"/><path id="Caminho_22" data-name="Caminho 22" class="cls-11" d="M8.8,21.2l.2.2.9-.9A6.73,6.73,0,0,0,8.8,21.2Zm.3-4.4A4.89,4.89,0,0,0,6,17.9a1,1,0,0,0,.4.5l.2.3a3.92,3.92,0,0,1,2.6-.9,3.84,3.84,0,0,1,2.5.9l.1-.2c.1-.2.3-.4.4-.6a5.33,5.33,0,0,0-3.1-1.1Z"/><path id="Caminho_23" data-name="Caminho 23" class="cls-11" d="M9.1,14.6A6.89,6.89,0,0,0,5,15.9a4.18,4.18,0,0,0,.4,1,6.28,6.28,0,0,1,3.7-1.2h0a6.06,6.06,0,0,1,3.5,1.1c.1-.3.3-.7.4-1A6.89,6.89,0,0,0,9.1,14.6Z"/></g><path id="Caminho_25" data-name="Caminho 25" class="cls-12" d="M18,3.4V1.6A2,2,0,0,0,16.3,0H1.6A1.91,1.91,0,0,0,0,1.6V3.4Z"/><circle id="Elipse_8" data-name="Elipse 8" class="cls-11" cx="8.9" cy="10" r="3"/></svg>