<svg id="Layer_1" data-name="Layer 1" xmlns="http://www.w3.org/2000/svg" viewBox="0 0 54.91 26.21"><defs><style>.cls-1{fill:#fff;}.cls-2{fill:#9ac201;}.cls-3{fill:#b1ce00;}.cls-4{fill:#e6f3e2;}</style></defs><title>Selos</title><path class="cls-1" d="M24.1,4.51c1.6,0,2.4.9,2.4,2.6v.3H25V7c0-.7-.3-1-.8-1s-.8.3-.8,1c0,2.1,3.1,2.5,3.1,5.4,0,1.6-.8,2.6-2.4,2.6s-2.4-.9-2.4-2.6v-.6h1.5v.7c0,.7.3,1,.8,1s.8-.3.8-1c0-2.1-3.1-2.5-3.1-5.4C21.8,5.41,22.6,4.51,24.1,4.51Z"/><path class="cls-1" d="M29,8.91h2.2v1.5H29v3h2.8v1.5H27.4V4.71h4.4v1.5H29Z"/><path class="cls-1" d="M35.2,9.11h2.2v3.2c0,1.6-.8,2.6-2.4,2.6s-2.4-.9-2.4-2.6V7c0-1.6.8-2.6,2.4-2.6s2.4.9,2.4,2.6V8H35.9V6.91c0-.7-.3-1-.8-1s-.8.3-.8,1v5.5c0,.7.3,1,.8,1s.8-.3.8-1v-1.9h-.7Z"/><path class="cls-1" d="M40,4.61v7.9c0,.7.3,1,.8,1s.8-.3.8-1V4.61h1.5v7.8c0,1.6-.8,2.6-2.4,2.6s-2.4-.9-2.4-2.6V4.61Z"/><path class="cls-1" d="M47.6,14.81a2.77,2.77,0,0,1-.1-1.3v-1.6c0-1-.3-1.3-1-1.3h-.6v4.1H44.3V4.51h2.4c1.7,0,2.4.8,2.4,2.4v.8A2.09,2.09,0,0,1,48,9.81c.8.3,1.1,1.1,1.1,2.2v1.6a2.54,2.54,0,0,0,.2,1.2Zm-1.8-8.7v3.1h.6c.6,0,1-.3,1-1.1v-1c0-.7-.3-1-.8-1Z"/><path class="cls-1" d="M50,7a2.45,2.45,0,1,1,4.9-.3v5.6a2.45,2.45,0,0,1-4.9.3V7Zm1.6,5.4c0,.7.3,1,.8,1s.8-.3.8-1V6.91c0-.7-.3-1-.8-1s-.8.3-.8,1Z"/><path class="cls-1" d="M23.9,19.91v.6a1.08,1.08,0,0,1-1.1,1.2c-.7,0-1.1-.4-1.1-1.2v-2.3A1.08,1.08,0,0,1,22.8,17c.7,0,1.1.4,1.1,1.2v.4h-.7v-.4c0-.3-.1-.5-.4-.5s-.4.1-.4.5v2.5c0,.3.1.4.4.4s.4-.1.4-.4V20Z"/><path class="cls-1" d="M25,19h1v.7H25v1.4h1.3v.6h-2v-4.6h2v.7H25Z"/><path class="cls-1" d="M28.2,21.61a1.27,1.27,0,0,1-.1-.6v-.7c0-.4-.1-.6-.5-.6h-.3v1.9h-.7V17h1.1a1,1,0,0,1,1.1,1.1v.4a.72.72,0,0,1-.5.9c.4.1.5.5.5,1v.7a.75.75,0,0,0,.1.5Zm-.8-3.9v1.4h.3c.3,0,.4-.1.4-.5v-.4c0-.3-.1-.5-.4-.5Z"/><path class="cls-1" d="M29.1,17h2.2v.7h-.8v3.9h-.7v-3.9H29Z"/><path class="cls-1" d="M31.7,17h.7v4.6h-.7Z"/><path class="cls-1" d="M33.7,19.11h.9v.6h-.9v1.9H33V17h1.9v.7H33.7Z"/><path class="cls-1" d="M35.2,17h.7v4.6h-.7Z"/><path class="cls-1" d="M38.6,19.91v.6a1.08,1.08,0,0,1-1.1,1.2c-.7,0-1.1-.4-1.1-1.2v-2.3A1.08,1.08,0,0,1,37.5,17c.7,0,1.1.4,1.1,1.2v.4h-.7v-.4c0-.3-.1-.5-.4-.5s-.4.1-.4.5v2.5c0,.3.1.4.4.4s.4-.1.4-.4V20Z"/><path class="cls-1" d="M41.3,21.61h-.7l-.1-.8h-.9l-.1.8h-.7l.7-4.6h1.1Zm-1.6-1.4h.7l-.4-2.3Z"/><path class="cls-1" d="M41.7,17h1.1a1,1,0,0,1,1.1,1.1v2.3a1,1,0,0,1-1.1,1.1H41.7Zm.7.7V21h.4c.2,0,.4-.1.4-.5v-2.3c0-.3-.1-.5-.4-.5Z"/><path class="cls-1" d="M44.3,18.21a1.1,1.1,0,0,1,2.2,0h0v2.4a1.1,1.1,0,0,1-2.2,0h0Zm.7,2.4c0,.3.1.5.4.5s.4-.1.4-.5v-2.5c0-.3-.1-.5-.4-.5s-.4.1-.4.5Z"/><path class="cls-1" d="M49,17c.7,0,1.1.4,1.1,1.2v.1h-.7v-.2c0-.3-.1-.5-.4-.5s-.4.1-.4.5c0,1,1.4,1.1,1.4,2.4a1.08,1.08,0,0,1-1.1,1.2c-.7,0-1.1-.4-1.1-1.2v-.3h.7v.3c0,.3.1.4.4.4s.4-.1.4-.4c0-1-1.4-1.1-1.4-2.4A1,1,0,0,1,49,17Z"/><path class="cls-1" d="M51.4,17c.7,0,1.1.4,1.1,1.2v.1h-.7v-.2c0-.3-.1-.5-.4-.5s-.4.1-.4.5c0,1,1.4,1.1,1.4,2.4a1.08,1.08,0,0,1-1.1,1.2c-.7,0-1.1-.4-1.1-1.2v-.3h.7v.3c0,.3.1.4.4.4s.4-.1.4-.4c0-1-1.4-1.1-1.4-2.4C50.4,17.41,50.7,17,51.4,17Z"/><path class="cls-1" d="M52.9,17h.7v4h1.2v.6H52.9Z"/><path class="cls-2" d="M8.3,10.11v16.1s-8.3-.4-8.3-8v-8H8.3Z"/><path class="cls-3" d="M8.3,10.11v16.1s8.3-.4,8.3-8v-8H8.3Z"/><path class="cls-4" d="M8.3,0a4.7,4.7,0,0,0-4.4,2.5A7.3,7.3,0,0,0,3,6v4.1H5.3v-5a2.75,2.75,0,0,1,1.2-2.2,3.35,3.35,0,0,1,3.6,0,2.4,2.4,0,0,1,1.2,2.2v5h2.3V6a7.3,7.3,0,0,0-.9-3.5A4.8,4.8,0,0,0,8.3,0Z"/><polygon class="cls-1" points="5.9 15.71 4.5 17.11 7.2 20.21 12 15.51 10.4 13.81 7.4 17.21 5.9 15.71"/></svg>