<svg id="Layer_1" data-name="Layer 1" xmlns="http://www.w3.org/2000/svg" xmlns:xlink="http://www.w3.org/1999/xlink" viewBox="0 0 63.84 26.2"><defs><style>.cls-1{fill:none;}.cls-2{fill:#f6cd1d;}.cls-3{fill:#fcb040;}.cls-4{clip-path:url(#clip-path);}.cls-5{fill:#056734;}.cls-6{clip-path:url(#clip-path-2);}.cls-7{fill:#94c120;}.cls-8{fill:#fff;}</style><clipPath id="clip-path"><polygon id="SVGID" class="cls-1" points="17 8.1 15 9.2 16.7 10.8 14.4 11.2 15.6 13.2 13.3 12.9 13.8 15.2 11.7 14.2 11.5 16.5 9.8 14.9 8.9 17 7.8 15 6.3 16.7 5.9 14.4 3.8 15.6 4.2 13.3 1.9 13.8 2.9 11.7 0.6 11.5 2.2 9.8 0 8.9 2.1 7.8 0.3 6.2 2.6 5.8 1.4 3.8 3.8 4.1 3.2 1.9 5.3 2.9 5.5 0.5 7.2 2.2 8.2 0 9.3 2.1 10.8 0.3 11.2 2.6 13.2 1.4 12.9 3.7 15.2 3.2 14.2 5.3 16.5 5.5 14.9 7.2 17 8.1"/></clipPath><clipPath id="clip-path-2"><circle id="SVGID-2" data-name="SVGID" class="cls-1" cx="8.3" cy="8.5" r="5.9"/></clipPath></defs><title>Selos</title><path class="cls-2" d="M1.8,22.5a4.56,4.56,0,0,0,.3,3,7.58,7.58,0,0,1,1.5-2,11.56,11.56,0,0,0,3,2.5,9,9,0,0,1-.2-7.4c1.2-2.6,2.2-4.5,2.2-4.5l-2.9-.5C5.7,13.5,2.2,18.9,1.8,22.5Z"/><path class="cls-3" d="M6.8,26.2l-.3-.1a8.87,8.87,0,0,1-3-2.4,9.42,9.42,0,0,0-1.4,1.9l-.1.2-.1-.1a4.78,4.78,0,0,1-.3-3.1,26,26,0,0,1,2.1-5.9c.9-1.8,1.8-3.2,1.8-3.2v-.1l3.1.5-.1.1a44.75,44.75,0,0,0-2.2,4.5,9.17,9.17,0,0,0,.2,7.3ZM3.6,23.3h0a9.37,9.37,0,0,0,2.7,2.3,11.45,11.45,0,0,1-.8-3.2,7.73,7.73,0,0,1,.7-4c1-2.2,1.9-3.9,2.2-4.4l-2.7-.5c-.4.6-3.4,5.6-3.8,8.9h0a5.72,5.72,0,0,0,.2,2.7,7.48,7.48,0,0,1,1.5-1.8Z"/><path class="cls-2" d="M8.6,14.3s0,6.2,2.6,8.1a17.75,17.75,0,0,1,.5-3s.8.7,3.5.5c-1-.7-2.8-1.7-3.6-6s-2.2-.6-2.2-.6Z"/><path class="cls-3" d="M11.3,22.7l-.2-.1a5.67,5.67,0,0,1-1.5-2.1,17.31,17.31,0,0,1-.8-2.7,22.32,22.32,0,0,1-.3-3.4h0l.9-1.1c.1-.2.7-1.6,1.3-1.5s.8.8,1.1,2.2c.7,3.8,2.3,5,3.3,5.7.1.1.2.1.3.2l.2.2h-.3a6.29,6.29,0,0,1-3.5-.4,21.6,21.6,0,0,0-.5,2.8ZM8.7,14.4A18.44,18.44,0,0,0,9,17.7c.3,1.5.9,3.6,2.1,4.6a17.47,17.47,0,0,1,.5-2.8l.1-.2.1.1s.8.6,3.1.5h0c-1-.7-2.7-1.9-3.4-5.9-.3-1.7-.7-2-.9-2h0c-.4,0-.9.8-1.1,1.4h0Z"/><g class="cls-4"><polygon class="cls-5" points="17 5 16.8 4.8 16.6 4.6 16.4 4.4 16.2 4.1 16 3.9 15.8 3.7 15.6 3.5 15.4 3.3 15.2 3.1 15 2.9 14.8 2.7 14.6 2.5 14.3 2.3 14.1 2.1 13.9 1.9 13.7 1.7 13.5 1.5 13.3 1.3 13.1 1 12.9 0.8 12.7 0.6 12.5 0.4 12.3 0.2 12.1 0 12.1 0 11.7 0 11.3 0 10.8 0 10.4 0 10 0 9.6 0 9.2 0 8.8 0 8.4 0 8 0 7.5 0 7.1 0 6.7 0 6.3 0 5.9 0 5.5 0 5.1 0 0 0 0 5.1 0 5.5 0 5.9 0 6.3 0 6.7 0 7.1 0 7.5 0 7.9 0 8.4 0 8.8 0 9.2 0 9.6 0 10 0 10.4 0 10.8 0 11.2 0 11.7 0 12 0 12.1 0.2 12.3 0.4 12.5 0.7 12.7 0.9 12.9 1.1 13.1 1.3 13.3 1.5 13.5 1.7 13.7 1.9 13.9 2.1 14.1 2.3 14.3 2.5 14.5 2.7 14.7 2.9 14.9 3.1 15.2 3.3 15.4 3.5 15.6 3.7 15.8 4 16 4.2 16.2 4.4 16.4 4.6 16.6 4.8 16.8 5 17 5 17 5.4 17 5.8 17 6.2 17 6.6 17 7 17 7.5 17 7.9 17 8.3 17 8.7 17 9.1 17 9.5 17 9.9 17 10.3 17 10.8 17 11.2 17 11.6 17 12 17 17 17 17 12 17 11.6 17 11.1 17 10.7 17 10.3 17 9.9 17 9.5 17 9.1 17 8.7 17 8.3 17 7.8 17 7.4 17 7 17 6.6 17 6.2 17 5.8 17 5.4 17 5"/></g><g class="cls-6"><polygon class="cls-7" points="14.2 5.1 14.1 5 14 4.9 13.9 4.8 13.8 4.7 13.7 4.6 13.7 4.5 13.6 4.4 13.5 4.3 13.4 4.2 13.3 4.1 13.2 4 13.1 3.9 13 3.8 12.9 3.7 12.8 3.6 12.7 3.5 12.6 3.4 12.5 3.3 12.4 3.2 12.3 3.1 12.2 3 12.1 2.9 12 2.8 11.9 2.7 11.8 2.6 11.7 2.5 11.7 2.5 11.5 2.5 11.3 2.5 11.1 2.5 10.9 2.5 10.7 2.5 10.6 2.5 10.4 2.5 10.2 2.5 10 2.5 9.8 2.5 9.6 2.5 9.4 2.5 9.2 2.5 9 2.5 8.8 2.5 8.6 2.5 8.4 2.5 8.2 2.5 8 2.5 7.8 2.5 7.6 2.5 7.4 2.5 7.2 2.5 7 2.5 6.8 2.5 6.6 2.5 6.5 2.5 6.3 2.5 6.1 2.5 5.9 2.5 2.4 2.5 2.4 6 2.4 6.2 2.4 6.4 2.4 6.6 2.4 6.8 2.4 7 2.4 7.2 2.4 7.4 2.4 7.6 2.4 7.8 2.4 8 2.4 8.1 2.4 8.3 2.4 8.5 2.4 8.7 2.4 8.9 2.4 9.1 2.4 9.3 2.4 9.5 2.4 9.7 2.4 9.9 2.4 10.1 2.4 10.3 2.4 10.5 2.4 10.7 2.4 10.9 2.4 11.1 2.4 11.3 2.4 11.5 2.4 11.7 2.4 11.8 2.4 11.8 2.5 11.9 2.6 12 2.7 12.1 2.8 12.2 2.9 12.3 3 12.4 3.1 12.5 3.2 12.6 3.3 12.7 3.4 12.8 3.5 12.9 3.6 13 3.7 13.1 3.8 13.2 3.9 13.3 4 13.4 4.1 13.5 4.2 13.6 4.3 13.7 4.4 13.8 4.5 13.9 4.6 14 4.7 14.1 4.8 14.2 4.9 14.3 5 14.4 5 14.4 5.1 14.4 5.3 14.4 5.5 14.4 5.7 14.4 5.9 14.4 6.1 14.4 6.3 14.4 6.5 14.4 6.7 14.4 6.9 14.4 7.1 14.4 7.3 14.4 7.5 14.4 7.7 14.4 7.9 14.4 8.1 14.4 8.2 14.4 8.4 14.4 8.6 14.4 8.8 14.4 9 14.4 9.2 14.4 9.4 14.4 9.6 14.4 9.8 14.4 10 14.4 10.2 14.4 10.4 14.4 10.6 14.4 10.8 14.4 14.3 14.4 14.3 10.9 14.3 10.7 14.3 10.5 14.3 10.3 14.3 10.1 14.3 9.9 14.3 9.7 14.3 9.6 14.3 9.4 14.3 9.2 14.3 9 14.3 8.8 14.3 8.6 14.3 8.4 14.3 8.2 14.3 8 14.3 7.8 14.3 7.6 14.3 7.4 14.3 7.2 14.3 7 14.3 6.8 14.3 6.6 14.3 6.4 14.3 6.2 14.3 6 14.3 5.8 14.3 5.6 14.3 5.5 14.3 5.3 14.3 5.1 14.2 5.1"/></g><path class="cls-8" d="M1.8,4.8a28.45,28.45,0,0,1,5.8,7.8s5.2-8,11.5-11.2A21.3,21.3,0,0,0,7.8,8.7,12,12,0,0,0,1.8,4.8Z"/><path class="cls-5" d="M33.2,13.6h-.3a4,4,0,0,0-2.3,1,4.53,4.53,0,0,0-1.1,1.9,8.73,8.73,0,0,0-.5,2.2,5.45,5.45,0,0,0,.1,2.2,2.63,2.63,0,0,0,.7,1.5,2.78,2.78,0,0,0,2.1.8.55.55,0,0,1,.5.3,6.73,6.73,0,0,0,.7,1.1c.7-.3,1.5-.7,2.2-1-.3-.4-.7-.8-1-1.2a3.81,3.81,0,0,0,.9-1.3,9.58,9.58,0,0,0,.9-3.7,6.8,6.8,0,0,0-.2-2,2.56,2.56,0,0,0-1.5-1.7C34,13.7,33.6,13.6,33.2,13.6Zm-.3,2.3h0c.3,0,.5.1.5.3h0a2,2,0,0,1,.1.7A14.35,14.35,0,0,1,33,20a3.33,3.33,0,0,1-.3.6h0a.64.64,0,0,1-.9.1h0l-.1-.1h0a.1.1,0,0,0-.1-.1h0v-.1a2.2,2.2,0,0,1-.1-.8v-.2a10.87,10.87,0,0,1,.4-2.6c.1-.2.2-.5.3-.7a2.54,2.54,0,0,1,.7-.2Z"/><path class="cls-5" d="M37.2,13.8h2.6c-.1.7-.2,1.4-.3,2-.1.8-.2,1.5-.3,2.3A11.08,11.08,0,0,0,39,20v.3c0,.5.3.6.7.5a.43.43,0,0,0,.4-.4,2.2,2.2,0,0,0,.1-.8l.3-2.1c.1-.7.2-1.5.3-2.2.1-.5.1-.9.2-1.4v-.1h2.6a1.27,1.27,0,0,1-.1.6c-.1.9-.2,1.7-.3,2.6s-.2,1.7-.3,2.5a8.47,8.47,0,0,1-.4,1.7,3.12,3.12,0,0,1-2.7,2.1,5.46,5.46,0,0,1-1.8-.1,2.13,2.13,0,0,1-1.6-1.8,6.08,6.08,0,0,1,.1-1.9c.1-.8.2-1.5.3-2.3s.2-1.5.3-2.3a4.1,4.1,0,0,1,.1-1.1Z"/><path class="cls-5" d="M25,13.8c-.1,0-.2,0-.2.2-1,2.9-2,5.7-3,8.6-.1.2-.1.4-.2.6h2.3c.2,0,.2,0,.3-.2l.3-1.2H26v1.4h2.6c-.3-3.1-.5-6.2-.8-9.3h-.2A22.6,22.6,0,0,0,25,13.8Zm.9,2.7h0c0,1.1.1,2.2.1,3.3H25Z"/><path class="cls-5" d="M43.3,23.1l1.2-9.3h2.6a1.27,1.27,0,0,1-.1.6l-.3,2.1-.3,2.1c-.1.8-.2,1.5-.3,2.3s-.2,1.5-.3,2.2l-.1.1a18.48,18.48,0,0,0-2.4-.1Z"/><path class="cls-7" d="M53.9,11.7H51.5c0-.3.1-.7.1-1a11.08,11.08,0,0,0,.2-1.9c0-.3.1-.6.1-1V7.6c0-.1,0-.3-.2-.3s-.3-.1-.5.1-.2.4-.3.6c-.1.9-.2,1.8-.4,2.8,0,.3-.1.5-.1.8v.2H48c0-.2.1-.4.1-.7.1-.8.2-1.7.3-2.5a25.12,25.12,0,0,1,.4-2.7.75.75,0,0,1,.1-.5l.1-.1h2.2c0,.3-.1.6-.1.9h0l.1-.1a2.32,2.32,0,0,1,1.9-.9,1.2,1.2,0,0,1,1.3,1v.1l.6-.6a2.47,2.47,0,0,1,1.9-.4,1.13,1.13,0,0,1,.8,1.2,3.08,3.08,0,0,1-.1,1c-.1.8-.2,1.5-.3,2.3s-.2,1.3-.3,2l-.1.1H54.7c.1-.5.1-.9.2-1.4.1-.8.2-1.5.3-2.3V7.9c0-.2,0-.3-.2-.3s-.3,0-.5.1a.76.76,0,0,0-.2.5c-.2,1.2-.3,2.4-.5,3.5.1-.2.1-.1.1,0Z"/><path class="cls-7" d="M24.4,2.4H22.8l-1.2,9.3h2.6c.2-1.2.3-2.3.5-3.5h0c.2,1.2.5,2.3.7,3.5h2.8c-.4-1.4-.9-2.7-1.3-4.1.1,0,.1,0,.1-.1a2.76,2.76,0,0,0,1.3-1.1,2.41,2.41,0,0,0,.4-1.8,2,2,0,0,0-.9-1.7,3.2,3.2,0,0,0-1.9-.5Zm.9,1.9A.68.68,0,0,1,26,5a1.64,1.64,0,0,1-.2,1,.1.1,0,0,1-.1.1h0a1,1,0,0,1-.9.3c.1-.7.2-1.5.3-2.2h.1A.1.1,0,0,0,25.3,4.3Z"/><path class="cls-7" d="M44.5,5a2.11,2.11,0,0,0-1.3.5A3.77,3.77,0,0,0,42.3,7a6.2,6.2,0,0,0-.4,2.3,3.89,3.89,0,0,0,.2,1.5,1.5,1.5,0,0,0,1.2,1.1,1.79,1.79,0,0,0,1.4-.4l.4-.4c0,.2-.1.4-.1.7h2.6c.3-2.2.6-4.4.9-6.5H46.1c0,.2-.1.4-.1.7-.1-.1-.1-.1-.1-.2a2.65,2.65,0,0,0-.6-.5A.91.91,0,0,0,44.5,5Zm.7,2h.2c.1,0,.2.1.2.3s.1.3.1.4v.1c0,.4-.1.8-.1,1.1,0,.1-.1.2-.1.3s-.1.3-.2.4a.37.37,0,0,1-.6,0,.35.35,0,0,1-.1-.2c0-.2-.1-.3-.1-.5a6.75,6.75,0,0,1,.2-1.4c.1-.1.1-.3.2-.4S45.1,7,45.2,7Z"/><path class="cls-7" d="M61.4,5h0a2.93,2.93,0,0,0-2.6,1.3,5.22,5.22,0,0,0-.8,3.8,2.22,2.22,0,0,0,.8,1.3,3.81,3.81,0,0,0,1.5.5,3.17,3.17,0,0,0,3.1-2c.1-.2.1-.3.2-.5H61.7a.1.1,0,0,0-.1.1c-.1.1-.1.3-.2.4a.62.62,0,0,1-.7.2c-.2-.1-.4-.2-.4-.5V8.7l.1-.1h3.3V8.5a5.92,5.92,0,0,0,.1-1.9,1.92,1.92,0,0,0-1.1-1.5A5.7,5.7,0,0,0,61.4,5Zm-.1,1.5a.66.66,0,0,1,.5.4v.6h0l-.1.1H60.3c0-.1.1-.1.1-.2l.3-.6a1.38,1.38,0,0,1,.4-.3Z"/><path class="cls-7" d="M31.6,5a2.56,2.56,0,0,0-2.3,1.2,4.57,4.57,0,0,0-.8,3.9A1.92,1.92,0,0,0,30,11.8a7.57,7.57,0,0,0,1.5.1A3,3,0,0,0,34,9.6V9.5H32.1l-.1.1a1,1,0,0,1-.4.5c-.4.2-.8.1-.9-.3a3.35,3.35,0,0,1,0-1h3.5a5,5,0,0,0,0-2.1,1.93,1.93,0,0,0-1.5-1.5A2,2,0,0,0,31.6,5Zm0,1.5h.2a.51.51,0,0,1,.4.5v.5h0l-.1.1H30.8V7.4l.3-.6.2-.2c.2-.1.2-.1.3-.1Z"/><path class="cls-7" d="M38.5,11.7c.4-3.4.9-6.8,1.3-10.2h2.4a1.27,1.27,0,0,1-.1.6c-.1.8-.2,1.7-.3,2.5s-.2,1.7-.3,2.5a25.12,25.12,0,0,1-.4,2.7,11.14,11.14,0,0,0-.2,1.7.1.1,0,0,1-.1.1H38.7c-.1.1-.1.1-.2.1Z"/><path class="cls-7" d="M38.2,9.6c0,.3-.1.6-.1.9s-.1.7-.1,1a.1.1,0,0,1-.1.1,2.44,2.44,0,0,1-2.6-.2,2,2,0,0,1-.8-1.4,5.3,5.3,0,0,1,.7-3.7A2.78,2.78,0,0,1,37.1,5a2.53,2.53,0,0,1,1.7.2c-.1.7-.2,1.3-.3,2-.1,0-.2-.1-.3-.1a.74.74,0,0,0-.8.4,2.49,2.49,0,0,0-.3,1.7.62.62,0,0,0,.8.5.37.37,0,0,1,.3-.1Z"/></svg>