<svg id="Layer_1" data-name="Layer 1" xmlns="http://www.w3.org/2000/svg" viewBox="0 0 88.49 31.14"><defs><style>.cls-1{fill:#fff;}.cls-2{fill:#32bcad;}</style></defs><title>Bandeiras</title><g id="g966"><g id="g972"><g id="path974"><path class="cls-1" d="M36.32,29.92a.68.68,0,0,1-.7-.7v-18a6.7,6.7,0,0,1,6.7-6.7h5.3a6.7,6.7,0,0,1,6.7,6.7V15a6.7,6.7,0,0,1-6.7,6.7h-7.5a.7.7,0,0,1,0-1.4h7.5a5.34,5.34,0,0,0,5.3-5.3v-3.8a5.32,5.32,0,0,0-5.2-5.3h-5.3a5.34,5.34,0,0,0-5.3,5.3v18A.85.85,0,0,1,36.32,29.92Z"/></g></g><g id="g976"><g id="path978"><path class="cls-1" d="M59.79,21.78a.68.68,0,0,1-.7-.7V7.68A1.69,1.69,0,0,0,57.39,6h-2.3a.7.7,0,1,1,0-1.4h2.3a3.22,3.22,0,0,1,3.2,3.2v13.4A.87.87,0,0,1,59.79,21.78Z"/></g></g><g id="g980"><g id="path982"><path class="cls-2" d="M59.35,3.13l-1-1a.57.57,0,0,1,0-.91l1-1a.57.57,0,0,1,.9,0l1,1a.57.57,0,0,1,0,.91l-1,1a.56.56,0,0,1-.9,0"/></g></g><g id="g984"><g id="path986"><path class="cls-1" d="M76.19,13.07a2.87,2.87,0,0,1-1.8-.7l-5.3-5.3A3.63,3.63,0,0,0,66.49,6h-2.3a.7.7,0,1,1,0-1.4h2.3a4.75,4.75,0,0,1,3.6,1.5l5.3,5.3a1,1,0,0,0,1.4,0l5.3-5.3a5.08,5.08,0,0,1,3.6-1.5h1.9a.7.7,0,1,1,0,1.4h-1.9a3.63,3.63,0,0,0-2.6,1.1l-5.3,5.3A1.75,1.75,0,0,1,76.19,13.07Z"/></g></g><g id="g988"><g id="path990"><path class="cls-1" d="M66.49,21.7h-2.3a.7.7,0,1,1,0-1.4h2.3a3.63,3.63,0,0,0,2.6-1.1l5.3-5.3a2.41,2.41,0,0,1,1.8-.7,2.87,2.87,0,0,1,1.8.7l5.3,5.3a3.63,3.63,0,0,0,2.6,1.1h1.9a.7.7,0,0,1,0,1.4h-1.9a4.75,4.75,0,0,1-3.6-1.5L77,14.9a1,1,0,0,0-1.4,0l-5.3,5.3A5.54,5.54,0,0,1,66.49,21.7Z"/></g></g><g id="g992"><g id="path994"><path class="cls-2" d="M22.73,24.36a4,4,0,0,1-3-1.3l-4.4-4.4a.78.78,0,0,0-1.1,0l-4.4,4.4a4.34,4.34,0,0,1-3,1.3h-.9l5.5,5.5a4.53,4.53,0,0,0,6.3,0l5.6-5.6h-.6Z"/></g></g><g id="g996"><g id="path998"><path class="cls-2" d="M6.79,9a4,4,0,0,1,3,1.3l4.4,4.4a.78.78,0,0,0,1.1,0l4.4-4.4a4.34,4.34,0,0,1,3-1.3h.5l-5.6-5.6a4.53,4.53,0,0,0-6.3,0l-5.5,5.5h1Z"/></g></g><g id="g1000"><g id="path1002"><path class="cls-2" d="M27.88,13.54l-3.4-3.4h-1.7a2.72,2.72,0,0,0-2.1.9l-4.4,4.4a2,2,0,0,1-1.5.6,2.2,2.2,0,0,1-1.5-.6L8.88,11a2.88,2.88,0,0,0-2.1-.9H4.68l-3.4,3.4a4.51,4.51,0,0,0,0,6.3l3.4,3.4h2.1a2.72,2.72,0,0,0,2.1-.9l4.4-4.4a2.18,2.18,0,0,1,3,0l4.4,4.4a2.88,2.88,0,0,0,2.1.9h1.7l3.4-3.4a4.53,4.53,0,0,0,0-6.3"/></g></g><g id="g1004"><g id="path1006"><path class="cls-1" d="M40.94,27.64c-.2,0-.5.1-.8.1v1.1a1.27,1.27,0,0,0,.6.1c.5,0,.8-.2.8-.7a.53.53,0,0,0-.6-.6m-1.1,2v-2.2H40v.1a2.77,2.77,0,0,1,.9-.1.73.73,0,0,1,.6.2.84.84,0,0,1,.2.7.75.75,0,0,1-.4.7,1.27,1.27,0,0,1-.6.1A2,2,0,0,1,40,29v.6Z"/></g></g><g id="g1008"><g id="path1010"><path class="cls-1" d="M43.09,27.69c-.5,0-.8.2-.8.7s.2.7.8.7.8-.2.8-.7-.2-.7-.8-.7m.7,1.3a1.45,1.45,0,0,1-.7.2.84.84,0,0,1-.7-.2.78.78,0,0,1-.3-.7.91.91,0,0,1,.3-.7,1.45,1.45,0,0,1,.7-.2.84.84,0,0,1,.7.2,1,1,0,0,1,0,1.4"/></g></g><g id="g1012"><g id="path1014"><path class="cls-1" d="M46.37,29.06l-.6-1.3h0l-.6,1.3H45l-.7-1.6h.2l.5,1.3h0l.6-1.3h.2l.6,1.3h0l.5-1.3h.2l-.7,1.6Z"/></g></g><g id="g1016"><g id="path1018"><path class="cls-1" d="M48.45,27.61c-.5,0-.7.2-.7.6h1.4c-.1-.4-.2-.6-.7-.6m-.1,1.5a.75.75,0,0,1-.9-.9.91.91,0,0,1,.3-.7,1.42,1.42,0,0,1,.6-.2.73.73,0,0,1,.6.2.91.91,0,0,1,.3.7h-1.6c0,.3.1.6.7.6a2,2,0,0,0,.8-.1v.2a1.08,1.08,0,0,1-.8.2"/></g></g><g id="g1020"><g id="path1022"><path class="cls-1" d="M49.82,29.06v-1.6H50v.1a2.2,2.2,0,0,1,.8-.1h0v.2h0a2,2,0,0,0-.7.1v1.3Z"/></g></g><g id="g1024"><g id="path1026"><path class="cls-1" d="M51.86,27.61c-.5,0-.7.2-.7.6h1.4c0-.4-.2-.6-.7-.6m0,1.5a.75.75,0,0,1-.9-.9.91.91,0,0,1,.3-.7,1.42,1.42,0,0,1,.6-.2.73.73,0,0,1,.6.2.91.91,0,0,1,.3.7h-1.6c0,.3.1.6.7.6a2,2,0,0,0,.8-.1v.2a1.08,1.08,0,0,1-.8.2"/></g></g><g id="g1028"><g id="path1030"><path class="cls-1" d="M54.84,27.71a1.27,1.27,0,0,0-.6-.1c-.5,0-.8.2-.8.7s.2.7.6.7c.2,0,.5-.1.8-.1Zm0,1.4h-.9a.73.73,0,0,1-.6-.2.84.84,0,0,1-.2-.7.75.75,0,0,1,.4-.7,1.27,1.27,0,0,1,.6-.1,2,2,0,0,1,.7.1v-.7H55v2.3Z"/></g></g><g id="g1032"><g id="path1034"><path class="cls-1" d="M57.76,27.64c-.2,0-.5.1-.8.1v1.1a1.27,1.27,0,0,0,.6.1c.5,0,.8-.2.8-.7a.53.53,0,0,0-.6-.6m.4,1.4a1.27,1.27,0,0,1-.6.1,1.7,1.7,0,0,1-.7-.1v.1h-.1v-2.3H57v.8a2.49,2.49,0,0,1,.8-.1.73.73,0,0,1,.6.2.84.84,0,0,1,.2.7.72.72,0,0,1-.4.6"/></g></g><g id="g1036"><g id="path1038"><path class="cls-1" d="M58.76,29.73v-.2H59a.55.55,0,0,0,.5-.3l.1-.1-.8-1.6H59l.7,1.4h0l.7-1.4h.2l-.9,1.8a.67.67,0,0,1-.7.4h-.2"/></g></g><g id="g1040"><g id="path1042"><path class="cls-1" d="M63.12,28.24h-.6v.6h.6c.4,0,.6,0,.6-.3s-.2-.3-.6-.3m-.1-.9h-.5v.6H63q.6,0,.6-.3c0-.3-.2-.3-.6-.3m.9,1.6a2.15,2.15,0,0,1-1,.2H62V27h.9a2.22,2.22,0,0,1,.9.1c.2.1.2.2.2.4a.55.55,0,0,1-.3.5h0c.3.1.5.2.5.5s-.1.3-.3.4"/></g></g><g id="g1044"><g id="path1046"><path class="cls-1" d="M66.08,28.4h-.6c-.3,0-.4.1-.4.2s.1.2.3.2a1.7,1.7,0,0,0,.7-.1Zm.1.7h-.9a.75.75,0,0,1-.5-.1.52.52,0,0,1-.2-.4c0-.2.1-.3.3-.4a1.27,1.27,0,0,1,.6-.1h.6q0-.3-.6-.3h-.6v-.3h.7c.3,0,.6,0,.7.1s.2.3.2.5V29h-.3Z"/></g></g><g id="g1048"><g id="path1050"><path class="cls-1" d="M68.57,29.06v-.9c0-.3-.1-.4-.4-.4a1.27,1.27,0,0,0-.6.1v1.2h-.4v-1.6h.4v.1a2.49,2.49,0,0,1,.8-.1c.2,0,.4,0,.5.2a.76.76,0,0,1,.2.5v1h-.5Z"/></g></g><g id="g1052"><g id="path1054"><path class="cls-1" d="M70.28,29.14a.73.73,0,0,1-.6-.2,1,1,0,0,1,0-1.4,1.45,1.45,0,0,1,.7-.2H71v.3h-.5c-.4,0-.6.1-.6.5s.1.5.5.5a2,2,0,0,0,.7-.1v.3a1,1,0,0,1-.8.3"/></g></g><g id="g1056"><g id="path1058"><path class="cls-1" d="M72.32,27.8c-.4,0-.6.1-.6.5s.2.5.6.5.6-.1.6-.5-.2-.5-.6-.5m.8,1.2a1.55,1.55,0,0,1-.8.2,1.08,1.08,0,0,1-.8-.2.78.78,0,0,1-.3-.7.91.91,0,0,1,.3-.7,1.55,1.55,0,0,1,.8-.2,1.08,1.08,0,0,1,.8.2.78.78,0,0,1,.3.7.91.91,0,0,1-.3.7"/></g></g><g id="g1060"><g id="path1062"><path class="cls-1" d="M75.9,29.14a1.08,1.08,0,0,1-.8-.2c-.3-.2-.3-.5-.3-.9a1.09,1.09,0,0,1,.4-.9,1.49,1.49,0,0,1,.9-.2h.7v.4h-.7c-.6,0-.9.2-.9.7s.2.7.7.7c.3,0,.6-.1,1-.1V29c-.3,0-.6.1-1,.1"/></g></g><g id="g1064"><g id="path1066"><path class="cls-1" d="M78.31,27.76c-.4,0-.5.1-.5.4h1.1a.55.55,0,0,0-.6-.4m-.1,1.4a.84.84,0,0,1-.7-.2.91.91,0,0,1-.3-.7,1.08,1.08,0,0,1,.3-.7,1.45,1.45,0,0,1,.7-.2,1,1,0,0,1,.7.2.83.83,0,0,1,.3.8h-1.5c0,.2.1.4.6.4a2,2,0,0,0,.8-.1V29a2.92,2.92,0,0,1-.9.2"/></g></g><g id="g1068"><g id="path1070"><path class="cls-1" d="M81.18,29.06v-.9c0-.3-.1-.4-.4-.4a1.27,1.27,0,0,0-.6.1v1.2h-.4v-1.6h.4v.1a2.49,2.49,0,0,1,.8-.1c.2,0,.4,0,.5.2a.76.76,0,0,1,.2.5v1h-.5Z"/></g></g><g id="g1072"><g id="path1074"><path class="cls-1" d="M82.86,29.14a.76.76,0,0,1-.5-.2.75.75,0,0,1-.1-.5v-.6H82v-.3h.3V27h.4v.5h.6v.3h-.6v.8c0,.1.2.1.3.1h.3V29c0,.1-.2.1-.4.1"/></g></g><g id="g1076"><g id="path1078"><path class="cls-1" d="M83.75,29.06v-1.6h.4v.1a2.2,2.2,0,0,1,.8-.1h.1v.4h-.2a1.27,1.27,0,0,0-.6.1v1.2h-.5Z"/></g></g><g id="g1080"><g id="path1082"><path class="cls-1" d="M86.63,28.4H86c-.3,0-.4.1-.4.2s.1.2.3.2a1.7,1.7,0,0,0,.7-.1Zm.1.7h-.9a.75.75,0,0,1-.5-.1.52.52,0,0,1-.2-.4c0-.2.1-.3.3-.4a1.27,1.27,0,0,1,.6-.1h.6q0-.3-.6-.3h-.6v-.3h.7c.3,0,.6,0,.7.1s.2.3.2.5V29h-.3Z"/></g></g><g id="path1084"><path class="cls-1" d="M87.56,26.85H88v2.3h-.4Z"/></g></g></svg>