<svg id="Layer_1" data-name="Layer 1" xmlns="http://www.w3.org/2000/svg" viewBox="0 0 54 54"><defs><style>.cls-1{fill:#fff;fill-rule:evenodd;}</style></defs><title>Bandeiras</title><path class="cls-1" d="M18.9,24.9l-8.3,3.6v-.4a4.8,4.8,0,0,1,4.8-4.8A4.47,4.47,0,0,1,18.9,24.9Z"/><path class="cls-1" d="M27,0A27,27,0,1,0,54,27,27,27,0,0,0,27,0ZM10.8,35l2-3c2,1.2,3.9,1,5.9-.6l2.5,2.5A8.2,8.2,0,0,1,10.8,35Zm9.3-7.4h0l-3.4,1.5L8.5,32.7a8.06,8.06,0,0,1-1.4-4.6,8.31,8.31,0,0,1,16.4-1.9Zm9,8.3-3-1.3c-1.2-.5-1.5-1.2-1.5-2.7V16.2h3V31.5a.4.4,0,0,0,.2.4l2.6,1Zm9.6.2a8.24,8.24,0,0,1-8.2-8.2,8.63,8.63,0,0,1,.8-3.6l3.1,1.6a4.33,4.33,0,0,0-.4,1.9,4.69,4.69,0,0,0,4.7,4.7A4.87,4.87,0,0,0,42,31.2l2.3,2.6A7.54,7.54,0,0,1,38.7,36.1ZM43,29.6a5.84,5.84,0,0,0,.4-1.8,4.69,4.69,0,0,0-4.7-4.7,5.26,5.26,0,0,0-3.2,1.2l-2.3-2.6a8.35,8.35,0,0,1,5.5-2.1,8.17,8.17,0,0,1,7.4,11.7Z"/></svg>