<svg id="Layer_1" data-name="Layer 1" xmlns="http://www.w3.org/2000/svg" viewBox="0 0 72.1 22.9"><defs><style>.cls-1{fill:#fff;}</style></defs><title>Bandeiras</title><path class="cls-1" d="M47.4,20.7a1.42,1.42,0,0,0-.2-.6,2.65,2.65,0,0,0-.5-.6,3.39,3.39,0,0,0-.8-.3,1.7,1.7,0,0,0,1-.6,2.44,2.44,0,0,0,.6-1.8,2.28,2.28,0,0,0-.3-1.1,2.7,2.7,0,0,0-.7-.8,5.14,5.14,0,0,0-2.5-.4H39.9v8.1h1.8V19.5h1.5a2.65,2.65,0,0,1,1.4.3.9.9,0,0,1,.6.6,8.11,8.11,0,0,1,.3,1.1,5.43,5.43,0,0,0,.2,1.1h2a2.87,2.87,0,0,1-.2-1.2A2,2,0,0,1,47.4,20.7ZM45.2,18a2,2,0,0,1-.9.2H41.8V16.1h2.5a1.48,1.48,0,0,1,.7.1.8.8,0,0,1,.6.9A1.1,1.1,0,0,1,45.2,18Z"/><polygon class="cls-1" points="29.9 6.7 24.8 6.7 24.8 4.9 29.2 4.9 29.2 4.7 29.2 3.3 24.8 3.3 24.8 1.7 29.8 1.7 29.8 0.2 22.9 0.2 22.9 4.7 22.9 8.3 29.9 8.3 29.9 6.7"/><path class="cls-1" d="M3.4.2,0,8.3H2.1l.8-1.9H6l.8,1.9H8.9L5.5.2ZM3.3,5,4.5,2.2,5.7,5Z"/><polygon class="cls-1" points="59.9 4.7 59.9 2.4 61.3 4.7 63.3 8.3 65.4 8.3 65.4 4.7 65.4 0.2 63.8 0.2 63.8 4.7 63.8 6.2 62.9 4.7 60.4 0.2 58.2 0.2 58.2 4.7 58.2 8.3 59.9 8.3 59.9 4.7"/><polygon class="cls-1" points="17.7 4.7 18.8 2.2 18.8 4.7 18.8 8.3 20.8 8.3 20.8 4.7 20.8 0.2 17.7 0.2 15.8 4.7 15.1 6.5 12.6 0.2 9.4 0.2 9.4 8.3 11.4 8.3 11.4 2.2 13.9 8.3 16.2 8.3 17.7 4.7"/><path class="cls-1" d="M39.1,6.2a.86.86,0,0,0-.3-.6,2.65,2.65,0,0,0-.5-.6,6.89,6.89,0,0,0-.8-.3c.1,0,.2-.1.3-.1a2.18,2.18,0,0,0,.8-.5,2.14,2.14,0,0,0,.7-1.8A2.28,2.28,0,0,0,39,1.2a3,3,0,0,0-.8-.8A6.33,6.33,0,0,0,35.4,0H30.8V8.1h2V5h1.6a3.51,3.51,0,0,1,1.6.3,1.34,1.34,0,0,1,.7.6A8.11,8.11,0,0,1,37,7a5.43,5.43,0,0,0,.2,1.1h2.3a2.87,2.87,0,0,1-.2-1.2C39.2,6.7,39.2,6.4,39.1,6.2ZM36.7,3.6a2.15,2.15,0,0,1-1,.2H32.9V1.7h2.8a1.72,1.72,0,0,1,.8.1.8.8,0,0,1,.7.9A1.93,1.93,0,0,1,36.7,3.6Z"/><polygon class="cls-1" points="42.4 4.7 42.4 0.2 40.6 0.2 40.6 4.7 40.6 8.3 42.4 8.3 42.4 4.7"/><path class="cls-1" d="M36.8,14.8a6.82,6.82,0,0,0-1.8-.2H28.5l-2.1,2.7-1.9-2.7H15.6v8.1h8.7l2.1-2.8,2.1,2.8h3.7V19.9h3.1a4.12,4.12,0,0,0,1.2-.1,3.55,3.55,0,0,0,.9-.4,2.18,2.18,0,0,0,.7-.9,2.66,2.66,0,0,0,.3-1.2,2.5,2.5,0,0,0-.4-1.4A1.68,1.68,0,0,0,36.8,14.8ZM23.3,21.2H17.7V19.4H22V17.8H17.7V16.2h5v-.9l2.7,3.4Zm7.3.7L28,18.6l2.6-3.2Zm5.5-3.7a2.15,2.15,0,0,1-1,.2H32.4V16H35c.3,0,.6,0,.7.1a1.06,1.06,0,0,1,.6,1.1C36.4,17.7,36.3,18.1,36.1,18.2Z"/><path class="cls-1" d="M71.8,19.1a1.82,1.82,0,0,0-1.1-1,4.64,4.64,0,0,0-1.4-.2H68a2.51,2.51,0,0,1-1-.1c-.3-.1-.4-.4-.4-.8s.2-.7.5-.8.5-.1,1-.1h3.5V14.7H66.7a1.87,1.87,0,0,0-1.5.8,3,3,0,0,0-.5,1.6,3,3,0,0,0,.2,1,1.56,1.56,0,0,0,.6.8,3.09,3.09,0,0,0,1.9.5h1.4a2,2,0,0,1,.9.2,1.05,1.05,0,0,1,.5.9.91.91,0,0,1-.4.8,2.68,2.68,0,0,1-1.1.2H65.2v1.4h3.9a4.51,4.51,0,0,0,1.3-.1,1.81,1.81,0,0,0,1.4-1,2.77,2.77,0,0,0,.3-1.3A12.08,12.08,0,0,1,71.8,19.1Z"/><path class="cls-1" d="M50.4,8.3l.8-1.9h3.1l.8,1.9h2.1L55.7,4.7,53.8.2h-2L49.9,4.7l-1,2.1H47.4a2.08,2.08,0,0,1-1.5-.4,2.45,2.45,0,0,1-.7-1.7V4.1c0-.9.1-1.5.5-1.8a2.2,2.2,0,0,1,1.7-.6H50V.3H47.2a5.62,5.62,0,0,0-2,.3,3.34,3.34,0,0,0-1.3,1.1,5.26,5.26,0,0,0-.6,2.6v.4a4.78,4.78,0,0,0,.4,1.8,2.81,2.81,0,0,0,2.2,1.7,4.51,4.51,0,0,0,1.3.1h3.2Zm1.4-3.6,1.1-2.6L54,4.7l.1.3H51.7Z"/><polygon class="cls-1" points="50.6 19.3 54.9 19.3 54.9 17.8 50.6 17.8 50.6 16.2 55.4 16.2 55.4 14.6 48.7 14.6 48.7 22.7 55.7 22.7 55.7 21.1 50.6 21.1 50.6 19.3"/><path class="cls-1" d="M62.6,18.1a4.64,4.64,0,0,0-1.4-.2H60a2.51,2.51,0,0,1-1-.1c-.3-.1-.4-.4-.4-.8s.2-.7.5-.8.5-.1,1-.1h3.5V14.7H58.7a1.87,1.87,0,0,0-1.5.8,3,3,0,0,0-.5,1.6,3,3,0,0,0,.2,1,1.56,1.56,0,0,0,.6.8,3.09,3.09,0,0,0,1.9.5h1.4a2,2,0,0,1,.9.2,1.05,1.05,0,0,1,.5.9.91.91,0,0,1-.4.8,2.68,2.68,0,0,1-1.1.2H57.2v1.4h3.9a4.51,4.51,0,0,0,1.3-.1,1.81,1.81,0,0,0,1.4-1,2.77,2.77,0,0,0,.3-1.3,3.08,3.08,0,0,0-.3-1.3A1.5,1.5,0,0,0,62.6,18.1Z"/></svg>