<svg id="Layer_1" data-name="Layer 1" xmlns="http://www.w3.org/2000/svg" viewBox="0 0 65.4 50.5"><defs><style>.cls-1{fill:#fff;}.cls-2{fill:#007abd;}</style></defs><title>Bandeiras</title><path class="cls-1" d="M15.1,31.9a.63.63,0,0,1-.7-.7c0-.5.3-.8.6-.8a.76.76,0,0,1,.7.8A.6.6,0,0,1,15.1,31.9Z"/><path class="cls-1" d="M8.3,30.7H4.7v.2c.7.1,1.1.1,1.1.6,0,.3-.1.7-.1.9L4,38.3c-.2.9-.5.9-1.1,1v.2H6.4c4.1,0,6-2.3,6-5.1A3.72,3.72,0,0,0,8.3,30.7Zm-2,8.4c-.6,0-1-.1-1-.5,0-.2.2-.8.3-1.3l1.6-5.8c.1-.2.1-.4.9-.4,2.5,0,2.7,1.7,2.7,3.1C10.8,35.1,10.7,39.1,6.3,39.1Z"/><path class="cls-1" d="M15.4,38.1c-.5.8-1.2,1.6-1.9,1.6s-.6-.6-.6-.9c0-.7,1.1-4.1,1.1-4.5s-.1-.4-.9-.4v-.2c.5,0,1.7-.3,2.2-.3h0l-1.2,4.5a3.71,3.71,0,0,0-.2.9.22.22,0,0,0,.2.2c.2,0,.6-.3,1.1-1.1Z"/><path class="cls-1" d="M21.9,38.1c-.7.9-1.2,1.6-1.9,1.6s-.7-.4-.7-.8,1-3.7,1-4.3c0-.3-.1-.5-.4-.5-.7,0-1.5,1.2-2,2a13.85,13.85,0,0,0-1.4,3.5h-1c.4-1.6,1.4-4.8,1.4-5.1s-.1-.4-.9-.4v-.2c.8-.1,1.5-.3,2.3-.4h0l-.9,2.9h0c.6-1,1.9-3,3.1-3,.6,0,1,.3,1,.9s-1.1,4-1.1,4.5a.2.2,0,0,0,.2.2c.3,0,.6-.5,1.1-1.1Z"/><path class="cls-1" d="M23.8,36.9c2.3-.3,3.6-1.5,3.6-2.5a1,1,0,0,0-1.1-1,4.79,4.79,0,0,0-4.2,4.3,1.85,1.85,0,0,0,1.9,2,4.16,4.16,0,0,0,2.8-1.5l-.2-.2a3.18,3.18,0,0,1-2,1,1.2,1.2,0,0,1-1.3-1.3c0-.3.1-.6.1-.8Zm0-.9c.5-1.2,1.5-2.3,2.2-2.3.4,0,.5.3.5.6,0,.1-.1,1.8-2.9,2.4Z"/><path class="cls-1" d="M27.3,39.5l1.1-4.1c.1-.5.2-1,.2-1.1s-.1-.4-.5-.4a1.09,1.09,0,0,0-.5.1v-.2c.7-.1,1.5-.3,2.2-.4h0l-.6,2.8h0l.1-.3c.5-.9,1.5-2.5,2.4-2.5a.68.68,0,0,1,.7.7c0,.7-.5.7-.6.7-.6,0-.4-.5-.7-.5s-1.3,1.5-1.4,1.8a20.54,20.54,0,0,0-1.3,3.5l-1.1-.1Z"/><path class="cls-1" d="M31.8,37.5c.1.6.3,1.9,1.5,1.9a1,1,0,0,0,1-1.1c0-.9-1.7-2.3-1.7-3.3a1.5,1.5,0,0,1,1.7-1.5c.6,0,.9.2,1.3.2.2,0,.3-.1.4-.3h.2l-.3,1.9h-.2c-.1-.8-.4-1.6-1.3-1.6a.72.72,0,0,0-.8.8c0,.9,1.7,2.1,1.7,3.3a1.92,1.92,0,0,1-2.1,1.9c-.4,0-1-.3-1.4-.3a.27.27,0,0,0-.3.3h-.2l.3-2.2Z"/><path class="cls-1" d="M47.1,33A2.1,2.1,0,0,0,45,30.7c-2.8,0-4.2,3.4-4.2,5.4,0,1.8.8,3,2.4,3a4.67,4.67,0,0,0,3.2-1.6l.2.2a5.12,5.12,0,0,1-3.8,2.1A3.5,3.5,0,0,1,39.2,36a6.06,6.06,0,0,1,5.7-5.8,16.44,16.44,0,0,1,2.2.3.68.68,0,0,0,.6-.3H48L47.5,33Z"/><path class="cls-1" d="M50.3,37.9c-.7,1.1-1.3,1.7-2.1,1.7-.6,0-.7-.5-.7-.9s2-7.6,2-7.9-.6-.4-1-.3v-.2a17,17,0,0,0,2.2-.4l.1.1-2.1,8.1c0,.1-.1.5-.1.7s0,.3.2.3c.4,0,.6-.4,1.3-1.3Z"/><path class="cls-1" d="M56.6,38c-.9,1.3-1.2,1.6-1.9,1.6s-.6-.5-.6-.7a24.55,24.55,0,0,1,.6-2.6h0c-1,1.6-2,3.3-3.2,3.3-.5,0-.8-.2-.8-.8s1.1-4.1,1.1-4.5-.3-.4-.8-.4v-.2a15.52,15.52,0,0,0,2.1-.4h0l-1.3,5.1c0,.2,0,.5.3.5.6,0,1.5-1.3,2-2a12,12,0,0,0,1.5-3.4h1l-1.1,4.2a6.15,6.15,0,0,0-.3,1.1c0,.1,0,.2.2.2s.6-.5,1.1-1.1Z"/><path class="cls-1" d="M61.3,32.9a2.6,2.6,0,0,0-2.4,1.4h0c.5-1.6.9-3.1,1.2-4.3l-.1-.1-2.1.3v.2c.8,0,.9.1.9.4a5.07,5.07,0,0,1-.2.9l-1.9,7v.1c0,.3,1.1.7,1.8.7A5.11,5.11,0,0,0,63,34.9C62.9,34,62.3,32.9,61.3,32.9Zm-2.8,6.5c-.7,0-.7-.4-.7-.5.2-2.5,1.4-5.2,2.9-5.2.9,0,1,1.1,1,1.6C61.7,36.4,60.4,39.4,58.5,39.4Z"/><path class="cls-1" d="M0,50c.7-.1.9-.2,1.1-1l1.7-5.8a2.77,2.77,0,0,0,.1-.9c0-.5-.4-.5-1-.6v-.2H5.3v.2c-.7.1-.9.2-1.1,1L2.5,48.5a2.77,2.77,0,0,0-.1.9c0,.5.4.5,1,.6v.2H0Z"/><path class="cls-1" d="M10.7,48.8c-.7.9-1.2,1.6-1.9,1.6s-.7-.4-.7-.8,1-3.7,1-4.3c0-.3-.1-.5-.4-.5-.7,0-1.5,1.2-2,2a13.85,13.85,0,0,0-1.4,3.5h-1c.4-1.6,1.4-4.8,1.4-5.1s-.1-.4-.9-.4v-.2c.8-.1,1.5-.3,2.3-.4h0l-.9,2.9h0c.6-1,1.9-3,3.1-3,.6,0,1,.3,1,.9s-1.1,4-1.1,4.5a.2.2,0,0,0,.2.2c.3,0,.6-.5,1.1-1.1Z"/><path class="cls-1" d="M14.4,44.7H13.2L12,49.3v.1a.22.22,0,0,0,.2.2c.3,0,.8-.7,1.1-1.1l.2.1c-.7,1.1-1.3,1.7-2,1.7-.3,0-.7-.1-.7-.6,0-.2.3-1.1.3-1.3l1-3.8h-1v-.2a4.88,4.88,0,0,1,.7-.3,6.1,6.1,0,0,0,1.5-1.3c.1-.1.1-.2.2-.2s.1.1.1.2l-.4,1.4h1.1Z"/><path class="cls-1" d="M15.7,47.6c2.3-.3,3.6-1.5,3.6-2.5a1,1,0,0,0-1.1-1A4.79,4.79,0,0,0,14,48.4a1.85,1.85,0,0,0,1.9,2,4.16,4.16,0,0,0,2.8-1.5l-.2-.2a3.18,3.18,0,0,1-2,1,1.2,1.2,0,0,1-1.3-1.3c0-.3.1-.6.1-.8Zm0-.9c.5-1.2,1.5-2.3,2.2-2.3.4,0,.5.3.5.6,0,.1-.1,1.8-2.9,2.4Z"/><path class="cls-1" d="M19.2,50.2l1.1-4.1c.1-.5.2-1,.2-1.1s-.1-.4-.5-.4a1.09,1.09,0,0,0-.5.1v-.2c.7-.1,1.5-.3,2.2-.4h0L21,46.9h0l.1-.3c.5-.9,1.5-2.5,2.4-2.5a.68.68,0,0,1,.7.7c0,.7-.5.7-.6.7-.6,0-.4-.5-.7-.5s-1.3,1.5-1.4,1.8a20.54,20.54,0,0,0-1.3,3.5l-1-.1Z"/><path class="cls-1" d="M30.4,48.8c-.7.9-1.2,1.6-1.9,1.6s-.7-.4-.7-.8,1-3.7,1-4.3c0-.3-.1-.5-.4-.5-.7,0-1.5,1.2-2,2A13.85,13.85,0,0,0,25,50.3H24c.4-1.6,1.4-4.8,1.4-5.1s-.1-.4-.9-.4v-.2c.8-.1,1.5-.3,2.3-.4h0l-.9,2.9h0c.6-1,1.9-3,3.1-3,.6,0,1,.3,1,.9s-1.1,4-1.1,4.5a.2.2,0,0,0,.2.2c.3,0,.6-.5,1.1-1.1Z"/><path class="cls-1" d="M36.6,48.7c-.6.6-.9,1-1.1,1a.22.22,0,0,1-.2-.2c0-.4,1.3-5.2,1.3-5.3h-.1l-.9.1h0l-.1.6h0c0-.4-.5-.8-1.1-.8-1.9,0-4,2.6-4,4.7h0a1.42,1.42,0,0,0,1.4,1.6c.8,0,1.6-.4,2.7-2.1h0a7.44,7.44,0,0,0-.3,1.5c0,.2,0,.6.6.6s1.1-.5,1.9-1.5Zm-4.2,1c-.4,0-.8-.3-.8-1,0-1.3,1.3-4.3,2.9-4.3a.82.82,0,0,1,.8.9C35.2,46.7,33.9,49.7,32.4,49.7Z"/><path class="cls-1" d="M40.3,44.7H39.1l-1.2,4.6v.1a.22.22,0,0,0,.2.2c.3,0,.8-.7,1.1-1.1l.2.1c-.7,1.1-1.3,1.7-2,1.7-.3,0-.7-.1-.7-.6,0-.2.3-1.1.3-1.3l1-3.8H37v-.2a4.88,4.88,0,0,1,.7-.3,6.1,6.1,0,0,0,1.5-1.3c.1-.1.1-.2.2-.2s.1.1.1.2l-.4,1.4h1.1Z"/><path class="cls-1" d="M43.2,48.8c-.5.8-1.2,1.6-1.9,1.6s-.6-.6-.6-.9c0-.7,1.1-4.1,1.1-4.5s-.1-.4-.9-.4v-.2c.5,0,1.7-.3,2.2-.3h0l-1.2,4.5a3.71,3.71,0,0,0-.2.9.22.22,0,0,0,.2.2c.2,0,.6-.3,1.1-1.1Z"/><path class="cls-1" d="M42.9,42.6a.63.63,0,0,1-.7-.7c0-.5.3-.8.6-.8a.76.76,0,0,1,.7.8A.55.55,0,0,1,42.9,42.6Z"/><path class="cls-1" d="M47.5,44.1a4.6,4.6,0,0,0-4.1,4.3,1.83,1.83,0,0,0,2.1,2c2.1,0,4-2.5,4-4.2A1.81,1.81,0,0,0,47.5,44.1Zm-1.8,6c-.7,0-1.1-.5-1.1-1.3,0-1.7,1.3-4.4,2.8-4.4.7,0,1,.6,1,1.3C48.4,47.2,47.3,50.1,45.7,50.1Z"/><path class="cls-1" d="M55.6,48.8c-.7.9-1.2,1.6-1.9,1.6s-.7-.4-.7-.8,1-3.7,1-4.3c0-.3-.1-.5-.4-.5-.7,0-1.5,1.2-2,2a13.85,13.85,0,0,0-1.4,3.5h-1c.4-1.6,1.4-4.8,1.4-5.1s-.1-.4-.9-.4v-.2c.8-.1,1.5-.3,2.3-.4h0l-.9,2.9h0c.6-1,1.9-3,3.1-3,.6,0,1,.3,1,.9s-1.1,4-1.1,4.5a.2.2,0,0,0,.2.2c.3,0,.6-.5,1.1-1.1Z"/><path class="cls-1" d="M61.9,48.7c-.6.6-.9,1-1.1,1a.22.22,0,0,1-.2-.2c0-.4,1.3-5.2,1.3-5.3h-.1l-.9.1h0l-.1.6h0c0-.4-.5-.8-1.1-.8-1.9,0-4,2.6-4,4.7,0,.4,0,1.7,1.4,1.7.8,0,1.6-.4,2.7-2.1h0a7.44,7.44,0,0,0-.3,1.5c0,.2,0,.6.6.6S61.2,50,62,49Zm-4.2,1c-.4,0-.8-.3-.8-1,0-1.3,1.3-4.3,2.9-4.3a.82.82,0,0,1,.8.9C60.5,46.7,59.1,49.7,57.7,49.7Z"/><path class="cls-1" d="M64.7,49c-.7,1.1-1,1.4-1.9,1.4-.6,0-.7-.5-.7-.9s2-7.6,2-7.9-.6-.4-1-.3v-.2a17,17,0,0,0,2.2-.4l.1.1-2.1,8.1c0,.1-.1.5-.1.7s0,.3.2.3c.4,0,.4,0,1-.9Z"/><path class="cls-1" d="M20.7,6V21.6A8.28,8.28,0,0,1,20.7,6Z"/><path class="cls-1" d="M31.7,13.8a8.25,8.25,0,0,1-5.5,7.8V6A8.38,8.38,0,0,1,31.7,13.8Z"/><path class="cls-2" d="M40.8,0H23.4a13.8,13.8,0,0,0,0,27.6H40.8A13.8,13.8,0,1,0,40.8,0ZM23.4,27.2A13.5,13.5,0,1,1,36.9,13.7,13.51,13.51,0,0,1,23.4,27.2Z"/><path class="cls-1" d="M20.7,6V21.6A8.28,8.28,0,0,1,20.7,6Z"/><path class="cls-1" d="M31.7,13.8a8.25,8.25,0,0,1-5.5,7.8V6A8.38,8.38,0,0,1,31.7,13.8Z"/><path class="cls-2" d="M20.7,21.6a8.25,8.25,0,0,1-5.5-7.8A8.34,8.34,0,0,1,20.7,6Z"/><path class="cls-2" d="M31.7,13.8a8.25,8.25,0,0,1-5.5,7.8V6A8.38,8.38,0,0,1,31.7,13.8Z"/></svg>