<svg id="Layer_1" data-name="Layer 1" xmlns="http://www.w3.org/2000/svg" viewBox="0 0 72 31.3"><defs><style>.cls-1{fill:#b3131b;fill-rule:evenodd;}</style></defs><title>Bandeiras</title><path class="cls-1" d="M31.3,13.3a2.26,2.26,0,0,0-2.1,1.8h3.7C33.3,13.8,32.5,13.3,31.3,13.3Z"/><path class="cls-1" d="M47.1,17.8c-.2,1.9,2,1.7,2.8.9a4.52,4.52,0,0,0,.9-2.6C49,15.9,47.3,16.2,47.1,17.8Z"/><path class="cls-1" d="M21.8,14.2c-.1.6-.2,1.3-.3,1.9a6.93,6.93,0,0,0-.3,2c.2,1.5,2.2,1.5,3.1.6a5.61,5.61,0,0,0,1.1-4C25.1,13,22.7,13.2,21.8,14.2Z"/><path class="cls-1" d="M61.7,13.4c-1.7.2-2.5,2.3-2.5,4.2,0,1.1.5,1.7,1.6,1.7,2.5-.1,2.3-3.5,2.8-5.6A3.63,3.63,0,0,0,61.7,13.4Z"/><path class="cls-1" d="M19.9,0H12.4c-3.3.2-6,1.5-6.8,4.2-.4,1.4-.6,3-1,4.5C3,16.2,1.6,24,0,31.3H58.1c4.5,0,7.6-.9,8.4-4.5.4-1.7.8-3.5,1.1-5.3C69,14.4,70.5,7.3,72,0ZM18.2,9.7a.6.6,0,0,1,.6-.3.76.76,0,0,1,.7.1c.5.4.1,1.4-.3,1.6-.2.1-.9.3-1.2,0A1.76,1.76,0,0,1,18.2,9.7ZM13,20.1c.3-1.8.6-3.5,1-5.2a38.44,38.44,0,0,0-4.8,0c-.4,1.7-.6,3.5-.9,5.3H6.5c.7-3.5,1.3-7.1,1.9-10.6h1.8c-.3,1.4-.5,2.9-.8,4.3a38.44,38.44,0,0,0,4.8,0c.3-1.4.5-2.8.7-4.3h1.8c-.7,3.5-1.3,7-1.9,10.6H13v-.1Zm3.4,0c.5-2.4,1-4.9,1.3-7.5v-.1h1.6c-.5,2.4-1,5-1.4,7.6Zm8.2-.2c-1,.5-3.3.8-3.7-.6-.3,1.3-.5,2.8-.7,4.2H18.6c.7-3.6,1.4-7.2,1.9-11h1.4c0,.2-.1.4-.1.7h0a4,4,0,0,1,3.6-.7C28.2,13.6,26.7,18.8,24.6,19.9Zm9.6-3.8c-1.7,0-3.4-.1-5.1,0-.3,1.1-.3,2.4.5,2.9,1.1.7,2.9.1,3.9-.3a5,5,0,0,0-.2,1.2c-2.5.6-5.6.7-5.9-1.8a6.49,6.49,0,0,1,1.3-4.6,4.19,4.19,0,0,1,2.8-1.1c1.3-.1,2.6.2,2.9,1.2A7.25,7.25,0,0,1,34.2,16.1Zm2.8-.9a26.38,26.38,0,0,0-.8,4.9H34.6c.5-2.5,1-4.9,1.3-7.6h1.4a6.11,6.11,0,0,1-.3,1.3,2.47,2.47,0,0,1,3-1.3c0,.4-.2.7-.2,1.1A2.26,2.26,0,0,0,37,15.2Zm7.5,4.7c-2,.7-4.6.6-5.1-1.2a6.32,6.32,0,0,1,1.2-5.2c1.1-1.1,3.1-1.3,5.2-1-.1.4-.1.8-.2,1.2-1.3-.4-2.9-.6-3.7.2a5.37,5.37,0,0,0-1.1,2.9,7.08,7.08,0,0,0,.1,1.5c.5,1.3,2.6,1,3.8.4C44.6,19.1,44.6,19.5,44.5,19.9Zm7.7-3.3a19.73,19.73,0,0,0-.4,3.5H50.4a4.87,4.87,0,0,1,.1-1.2,3.39,3.39,0,0,1-4,1.1c-.8-.3-1.2-1.6-.8-2.8.6-1.8,2.7-2.3,5.3-2a2.34,2.34,0,0,0,.2-1.2c-.3-1.2-3.1-.5-4.1-.3l.3-1.2c1.9-.1,5.2-.8,5.3,1.2A14.68,14.68,0,0,1,52.2,16.6Zm2.8.8a12.59,12.59,0,0,0-.4,2.7H53.1c.5-2.4,1-5,1.4-7.6h1.4a5.27,5.27,0,0,1-.3,1.2c.5-.7,1.6-1.9,3-1.2-.1.3-.1.7-.2,1.1C55.9,13,55.4,15.3,55,17.4Zm9.2,2.7H62.8A3.59,3.59,0,0,1,63,19c0-.1-.2.2-.3.4a2.65,2.65,0,0,1-.5.6,3.66,3.66,0,0,1-3.9-.3,2.9,2.9,0,0,1-.5-1.8c0-3.5,2.3-6.3,6.2-5.1.2-1.1.4-2.2.5-3.4h1.6A58.13,58.13,0,0,0,64.2,20.1Z"/></svg>