<svg id="Layer_1" data-name="Layer 1" xmlns="http://www.w3.org/2000/svg" viewBox="0 0 72 22"><defs><style>.cls-1{fill:#1d5b99;fill-rule:evenodd;}</style></defs><title>Bandeiras</title><polygon class="cls-1" points="20.6 21.4 27 0.4 32.7 0.4 26.3 21.4 20.6 21.4"/><path class="cls-1" d="M18.1.4,13,9.3c-1.3,2.3-2.1,3.5-2.4,5h-.1c.1-1.9-.2-4.2-.2-5.5L9.7.4H.1L0,1C2.5,1,3.9,2.2,4.3,4.8L6.2,21.5h5.9L24,.5,18.1.4Z"/><path class="cls-1" d="M62.3,21.4l-.2-3.1H55l-1.5,3.1H47.3L58.5.4h7.6l1.9,21ZM61.6,9a39.9,39.9,0,0,1,0-4.9h-.1c-.4,1-1.8,4.2-2.5,5.7l-2.1,4.6h5L61.6,9Z"/><path class="cls-1" d="M38.6,22A16.34,16.34,0,0,1,30,19.6l2.7-4.1c1.7.9,3,2.1,6.1,2.1a2.69,2.69,0,0,0,2.5-1.2c.8-1.4-.2-2.1-2.4-3.4l-1.1-.7c-3.3-2.3-4.7-4.4-3.2-8.1,1-2.4,3.6-4.2,7.9-4.2a13,13,0,0,1,7.4,2.5L46.8,6.2a6.8,6.8,0,0,0-4.4-1.9A2.64,2.64,0,0,0,40,5.4c-.6,1.2.2,2,1.9,3.1l1.3.8c4,2.5,5,5.2,4,7.6C45.5,21,42.1,22,38.6,22Z"/><path class="cls-1" d="M69.6,3.7h-.4V1.4h.9c.5,0,.8.2.8.7a.58.58,0,0,1-.6.6l.6,1h-.4l-.6-1h-.4l.1,1ZM70,2.4c.3,0,.5,0,.5-.4s-.3-.3-.5-.3h-.5v.7Zm0,2.1a2,2,0,0,1-2-2.1A2,2,0,0,1,70,.3a2,2,0,0,1,2,2.1,2,2,0,0,1-2,2.1ZM70,.8a1.61,1.61,0,0,0-1.6,1.7,1.6,1.6,0,1,0,3.2,0A1.61,1.61,0,0,0,70,.8Z"/></svg>