<svg id="Layer_1" data-name="Layer 1" xmlns="http://www.w3.org/2000/svg" viewBox="0 0 64.8 50.4"><defs><style>.cls-1{fill:#fff;}.cls-2{fill:#ea001b;}.cls-3{fill:#f79f1a;}.cls-4{fill:#ff5f01;}</style></defs><title>Bandeiras</title><path class="cls-1" d="M11.8,50.1V46.8a1.94,1.94,0,0,0-2.1-2.1,2.06,2.06,0,0,0-1.9,1,2,2,0,0,0-1.8-1,1.93,1.93,0,0,0-1.6.8v-.7H3.2v5.3H4.4v-3a1.24,1.24,0,0,1,1.3-1.4c.8,0,1.2.5,1.2,1.4v3H8.1v-3a1.24,1.24,0,0,1,1.3-1.4c.8,0,1.2.5,1.2,1.4v3Z"/><path class="cls-1" d="M29.1,44.8H27.2V43.2H26v1.6H24.9v1.1H26v2.4c0,1.2.5,2,1.9,2a3.71,3.71,0,0,0,1.5-.4l-.3-1a1.93,1.93,0,0,1-1,.3c-.6,0-.8-.4-.8-.9V45.9h1.9l-.1-1.1Z"/><path class="cls-1" d="M39,44.7a1.49,1.49,0,0,0-1.4.8v-.6H36.5v5.3h1.2v-3c0-.9.4-1.4,1.1-1.4a1.7,1.7,0,0,1,.7.1l.4-1.1a3.44,3.44,0,0,0-.9-.1Z"/><path class="cls-1" d="M24,45.2a3.8,3.8,0,0,0-2.2-.6c-1.4,0-2.2.7-2.2,1.7s.6,1.4,1.8,1.6l.5.1q.9.15.9.6c0,.4-.4.7-1.2.7a3,3,0,0,1-1.8-.6l-.5.9a3.51,3.51,0,0,0,2.3.7c1.5,0,2.4-.7,2.4-1.7s-.7-1.4-1.9-1.6l-.5-.1c-.5-.1-.9-.2-.9-.5s.4-.6,1-.6a3.8,3.8,0,0,1,1.7.5Z"/><path class="cls-1" d="M55,44.7a1.49,1.49,0,0,0-1.4.8v-.6H52.5v5.3h1.2v-3c0-.9.4-1.4,1.1-1.4a1.7,1.7,0,0,1,.7.1l.4-1.1a2.77,2.77,0,0,0-.9-.1Z"/><path class="cls-1" d="M40.1,47.5a2.68,2.68,0,0,0,2.8,2.8,3.08,3.08,0,0,0,1.9-.6l-.6-.9a2.39,2.39,0,0,1-1.4.5,1.7,1.7,0,0,1,0-3.4,2.39,2.39,0,0,1,1.4.5l.6-.9a2.56,2.56,0,0,0-1.9-.6,2.43,2.43,0,0,0-2.8,2.6Z"/><path class="cls-1" d="M49.8,44.8v.6a2,2,0,0,0-1.7-.8,2.8,2.8,0,0,0,0,5.6,2,2,0,0,0,1.7-.8v.7H51V44.8Zm-1.5,4.4a1.7,1.7,0,0,1,0-3.4,1.55,1.55,0,0,1,1.6,1.7A1.67,1.67,0,0,1,48.3,49.2Z"/><path class="cls-1" d="M35.2,47.4a2.56,2.56,0,0,0-2.5-2.8,2.52,2.52,0,0,0-2.6,2.8,2.6,2.6,0,0,0,2.7,2.8,3.16,3.16,0,0,0,2.2-.8l-.6-.9a2.2,2.2,0,0,1-1.5.6,1.44,1.44,0,0,1-1.6-1.3h3.9ZM31.3,47a1.34,1.34,0,0,1,1.4-1.3c.8,0,1.2.5,1.3,1.3Z"/><path class="cls-1" d="M60.5,42.7v2.8a2,2,0,0,0-1.7-.8,2.8,2.8,0,0,0,0,5.6,2,2,0,0,0,1.7-.8v.7h1.2V42.7ZM59,49.2a1.7,1.7,0,0,1,0-3.4,1.55,1.55,0,0,1,1.6,1.7A1.67,1.67,0,0,1,59,49.2Z"/><path class="cls-1" d="M17.2,44.8v.6a2,2,0,0,0-1.7-.8,2.8,2.8,0,0,0,0,5.6,2,2,0,0,0,1.7-.8v.7h1.2V44.8Zm-1.6,4.4a1.7,1.7,0,0,1,0-3.4,1.55,1.55,0,0,1,1.6,1.7A1.6,1.6,0,0,1,15.6,49.2Z"/><path class="cls-1" d="M63.8,49.9h0v-.2h-.4v.5h.1V50h0l.2.2h.1l-.2-.2A.31.31,0,0,1,63.8,49.9Zm-.3,0h0l.1-.1h0l-.1.1Z"/><path class="cls-1" d="M64.1,49.7c0-.1-.1-.1-.1-.2a.35.35,0,0,0-.2-.1h-.4c-.1,0-.1.1-.2.1a.35.35,0,0,0-.1.2v.4c0,.1.1.1.1.2a.35.35,0,0,0,.2.1h.4c.1,0,.1-.1.2-.1s.1-.1.1-.2v-.2C64.2,49.8,64.2,49.7,64.1,49.7ZM64,50a.1.1,0,0,1-.1.1l-.1.1h-.4l-.1-.1-.1-.1v-.4a.1.1,0,0,1,.1-.1l.1-.1h.4a.1.1,0,0,1,.1.1l.1.1V50Z"/><path class="cls-1" d="M63.8,49.9h0v-.2h-.4v.5h.1V50h0l.2.2h.1l-.2-.2A.31.31,0,0,1,63.8,49.9Zm-.3,0h0l.1-.1h0l-.1.1Z"/><path class="cls-1" d="M63.8,49.9h0v-.2h-.4v.5h.1V50h0l.2.2h.1l-.2-.2A.31.31,0,0,1,63.8,49.9Zm-.3,0h0l.1-.1h0l-.1.1Z"/><polygon class="cls-1" points="62.9 32.4 62.9 31.8 63.2 31.8 63.2 31.7 62.5 31.7 62.5 31.8 62.8 31.8 62.8 32.4 62.9 32.4"/><polygon class="cls-1" points="64.2 32.4 64.2 31.7 64 31.7 63.8 32.2 63.5 31.7 63.3 31.7 63.3 32.4 63.5 32.4 63.5 31.8 63.7 32.3 63.8 32.3 64.1 31.8 64.1 32.4 64.2 32.4"/><path class="cls-2" d="M30.6,36.3c.2.1.3.3.5.4A20,20,0,1,1,20,0,20.12,20.12,0,0,1,31.1,3.3c-.2.1-.3.3-.5.4a21.65,21.65,0,0,0,0,32.6Z"/><path class="cls-3" d="M44.8,0A20.12,20.12,0,0,0,33.7,3.3c.2.1.3.3.5.4a21.65,21.65,0,0,1,0,32.6c-.2.1-.3.3-.5.4A20,20,0,1,0,44.8,0Z"/><path class="cls-4" d="M32.4,4.3c-.3.2-.5.4-.8.6a20,20,0,0,0,0,30.2c.3.2.5.4.8.6.3-.2.5-.4.8-.6a20,20,0,0,0,0-30.2c-.3-.2-.5-.4-.8-.6"/></svg>