<svg id="Layer_1" data-name="Layer 1" xmlns="http://www.w3.org/2000/svg" viewBox="0 0 72 32.1"><defs><style>.cls-1,.cls-2{fill:#fff;}.cls-2{fill-rule:evenodd;}</style></defs><title>Bandeiras</title><rect class="cls-1" x="5" width="3.4" height="14.2"/><rect class="cls-1" x="9.5" width="1.1" height="14.2"/><rect class="cls-1" x="11.5" width="1.9" height="14.2"/><rect class="cls-1" x="15.2" width="1.1" height="14.2"/><rect class="cls-1" x="16.7" width="0.8" height="14.2"/><polygon class="cls-2" points="2.3 0 3.4 0 3.4 32.1 2.3 32.1 2.3 0"/><polygon class="cls-2" points="0 0 1.9 0 1.9 32.1 0 32.1 0 0"/><rect class="cls-1" x="23.2" width="3.4" height="14.2"/><rect class="cls-1" x="27.7" width="1.1" height="14.2"/><rect class="cls-1" x="29.7" width="1.9" height="14.2"/><rect class="cls-1" x="33.5" width="1.1" height="14.2"/><rect class="cls-1" x="35" width="0.8" height="14.2"/><rect class="cls-1" x="20.6" width="1.1" height="14.2"/><rect class="cls-1" x="18.3" width="1.9" height="14.2"/><rect class="cls-1" x="37.2" width="1.9" height="14.2"/><rect class="cls-1" x="40.9" width="1.1" height="14.2"/><rect class="cls-1" x="42.4" width="0.8" height="14.2"/><rect class="cls-1" x="46.3" width="1.1" height="14.2"/><rect class="cls-1" x="44" width="1.9" height="14.2"/><rect class="cls-1" x="48.8" width="1.1" height="14.2"/><rect class="cls-1" x="50.3" width="0.8" height="14.2"/><rect class="cls-1" x="54.2" width="1.1" height="14.2"/><rect class="cls-1" x="51.8" width="1.9" height="14.2"/><rect class="cls-1" x="56.2" width="3.4" height="14.2"/><rect class="cls-1" x="60.7" width="1.1" height="14.2"/><rect class="cls-1" x="62.7" width="1.9" height="14.2"/><rect class="cls-1" x="66.4" width="1.1" height="14.2"/><rect class="cls-1" x="67.9" width="0.8" height="14.2"/><polygon class="cls-2" points="70.1 0 72 0 72 32.1 70.1 32.1 70.1 0"/><path class="cls-1" d="M5.1,31.5V15.2h6.1a8.53,8.53,0,0,1,3,.5A3.76,3.76,0,0,1,16,17.2a4.28,4.28,0,0,1,.6,2.2,3.86,3.86,0,0,1-.6,2,4.2,4.2,0,0,1-1.7,1.5,4.64,4.64,0,0,1,2.3,1.5,4.15,4.15,0,0,1,.8,2.5,4.65,4.65,0,0,1-.5,2.1,3.09,3.09,0,0,1-1.2,1.5,7.5,7.5,0,0,1-1.8.8,9.78,9.78,0,0,1-2.6.3l-6.2-.1ZM7.3,22h3.5a8.09,8.09,0,0,0,2-.2,2.1,2.1,0,0,0,1.6-2.2,2.3,2.3,0,0,0-.4-1.4,1.78,1.78,0,0,0-1.1-.8,12.94,12.94,0,0,0-2.5-.2H7.1L7.3,22Zm0,7.6h4.1a5.76,5.76,0,0,0,1.5-.1,3.37,3.37,0,0,0,1.2-.4,2.36,2.36,0,0,0,.8-.9,3.19,3.19,0,0,0,.3-1.4,3,3,0,0,0-.5-1.6,1.76,1.76,0,0,0-1.3-.9A7,7,0,0,0,11,24H7.2l.1,5.6Z"/><path class="cls-1" d="M19.4,25.6q0-3.3,1.8-4.8a5.41,5.41,0,0,1,3.7-1.3,5.35,5.35,0,0,1,4,1.6,6.18,6.18,0,0,1,1.5,4.4,7.45,7.45,0,0,1-.7,3.6,4.82,4.82,0,0,1-2,2,5.55,5.55,0,0,1-2.8.7,5.06,5.06,0,0,1-4-1.6,6.53,6.53,0,0,1-1.5-4.6Zm2,0a4.94,4.94,0,0,0,1,3.4,3.07,3.07,0,0,0,2.5,1.1A3.41,3.41,0,0,0,27.4,29a4.77,4.77,0,0,0,1-3.4,4.5,4.5,0,0,0-1-3.3,3.07,3.07,0,0,0-2.5-1.1,3.41,3.41,0,0,0-2.5,1.1,5,5,0,0,0-1,3.3Z"/><polygon class="cls-1" points="32.7 31.5 32.7 15.2 34.7 15.2 34.7 31.5 32.7 31.5"/><path class="cls-1" d="M45.9,27.7,48,28a4.91,4.91,0,0,1-1.8,2.8,5.29,5.29,0,0,1-3.4,1,5.28,5.28,0,0,1-4.1-1.6,6.44,6.44,0,0,1-1.5-4.5,6.53,6.53,0,0,1,1.5-4.6,5.06,5.06,0,0,1,4-1.6,4.64,4.64,0,0,1,3.8,1.6A6.44,6.44,0,0,1,48,25.6v.5H39.2a4.54,4.54,0,0,0,1.1,3,3.32,3.32,0,0,0,2.5,1,3.08,3.08,0,0,0,1.9-.6,4.07,4.07,0,0,0,1.2-1.8Zm-6.6-3.2h6.6a3.41,3.41,0,0,0-.8-2.2,3,3,0,0,0-2.5-1.2,3.17,3.17,0,0,0-2.3.9,4.41,4.41,0,0,0-1,2.5Z"/><path class="cls-1" d="M54.8,29.7l.3,1.8a10.4,10.4,0,0,1-1.5.2,4,4,0,0,1-1.7-.3,1.42,1.42,0,0,1-.8-.9,6.9,6.9,0,0,1-.2-2.4V21.2H49.4V19.6h1.5V16.7l2-1.2v4.1h2v1.6h-2v6.9a2.81,2.81,0,0,0,.1,1.1,1.38,1.38,0,0,0,.3.4,1.48,1.48,0,0,0,.7.1,1.1,1.1,0,0,0,.8,0Z"/><path class="cls-1" d="M56.1,25.6q0-3.3,1.8-4.8a5.85,5.85,0,0,1,7.7.3,6.18,6.18,0,0,1,1.5,4.4,7.45,7.45,0,0,1-.7,3.6,4.82,4.82,0,0,1-2,2,5.55,5.55,0,0,1-2.8.7,5.06,5.06,0,0,1-4-1.6,6.53,6.53,0,0,1-1.5-4.6Zm2,0a4.94,4.94,0,0,0,1,3.4,3.07,3.07,0,0,0,2.5,1.1A3.41,3.41,0,0,0,64.1,29a4.77,4.77,0,0,0,1-3.4,4.5,4.5,0,0,0-1-3.3,3.07,3.07,0,0,0-2.5-1.1,3.41,3.41,0,0,0-2.5,1.1,4.5,4.5,0,0,0-1,3.3Z"/></svg>